<svg xmlns="http://www.w3.org/2000/svg" width="300" height="440"><path fill="#444" d="M63.75 122h187.5v10H63.75z"/><path stroke="#666" stroke-width="2" d="M63.75 132v198M101.25 132v198M138.75 132v198M176.25 132v198M213.75 132v198M251.25 132v198M63.75 132h187.5M63.75 198h187.5M63.75 264h187.5M63.75 330h187.5"/><circle cx="213.75" cy="165" r="16.667" fill="#7800aaff" stroke="#7800aaff" stroke-width="2"/><text x="209.32" y="150.738" fill="#fff" stroke="#fff" stroke-width=".7" font-family="-apple-system, BlinkMacSystemFont, &quot;Segoe UI&quot;, Roboto, Helvetica, Arial, sans-serif, &quot;Apple Color Emoji&quot;, &quot;Segoe UI Emoji&quot;, &quot;Segoe UI Symbol&quot;" font-size="15.95" font-style="light" font-weight="600"><tspan x="209.32" dy="20.735">5</tspan></text><circle cx="176.25" cy="165" r="16.667" fill="#15927cff" stroke="#15927cff" stroke-width="2"/><text x="168.219" y="150.738" fill="#fff" stroke="#fff" stroke-width=".7" font-family="-apple-system, BlinkMacSystemFont, &quot;Segoe UI&quot;, Roboto, Helvetica, Arial, sans-serif, &quot;Apple Color Emoji&quot;, &quot;Segoe UI Emoji&quot;, &quot;Segoe UI Symbol&quot;" font-size="15.95" font-style="light" font-weight="600"><tspan x="168.219" dy="20.735">♭3</tspan></text><circle cx="138.75" cy="165" r="16.667" fill="#925015ff" stroke="#925015ff" stroke-width="2"/><text x="130.875" y="150.738" fill="#fff" stroke="#fff" stroke-width=".7" font-family="-apple-system, BlinkMacSystemFont, &quot;Segoe UI&quot;, Roboto, Helvetica, Arial, sans-serif, &quot;Apple Color Emoji&quot;, &quot;Segoe UI Emoji&quot;, &quot;Segoe UI Symbol&quot;" font-size="15.95" font-style="light" font-weight="600"><tspan x="130.875" dy="20.735">♭7</tspan></text><circle cx="63.75" cy="165" r="16.667" fill="#000000ff" stroke="#000000ff" stroke-width="2"/><text x="58.781" y="150.738" fill="#fff" stroke="#fff" stroke-width=".7" font-family="-apple-system, BlinkMacSystemFont, &quot;Segoe UI&quot;, Roboto, Helvetica, Arial, sans-serif, &quot;Apple Color Emoji&quot;, &quot;Segoe UI Emoji&quot;, &quot;Segoe UI Symbol&quot;" font-size="15.95" font-style="light" font-weight="600"><tspan x="58.781" dy="20.735">R</tspan></text></svg>